<svg xmlns="http://www.w3.org/2000/svg" viewBox="0 0 100 100">
  <rect width="100" height="100" rx="12" fill="#0099FF"/>
  <!-- Location pin with car hint -->
  <g fill="white">
    <!-- Pin -->
    <path d="M50 12 C35 12 23 24 23 39 C23 58 50 78 50 78 C50 78 77 58 77 39 C77 24 65 12 50 12Z M50 49 C44 49 39 44 39 38 C39 32 44 27 50 27 C56 27 61 32 61 38 C61 44 56 49 50 49Z"/>
    <!-- Car silhouette below -->
    <path d="M25 82 L30 78 Q50 70 70 78 L75 82 L78 86 L22 86 Z"/>
    <ellipse cx="32" cy="83" rx="4" ry="2" fill="#0099FF"/>
    <ellipse cx="68" cy="83" rx="4" ry="2" fill="#0099FF"/>
  </g>
</svg>
