<?xml version="1.0" encoding="utf-8"?>
<!-- Generator: Adobe Illustrator 26.3.1, SVG Export Plug-In . SVG Version: 6.00 Build 0)  -->
<svg version="1.1" id="Layer_1" xmlns="http://www.w3.org/2000/svg" xmlns:xlink="http://www.w3.org/1999/xlink" x="0px" y="0px"
	 viewBox="0 0 160 20" style="enable-background:new 0 0 160 20;" xml:space="preserve">
<style type="text/css">
	.st0{fill:#1D1D1B;}
	.st1{fill:#0078BE;}
</style>
<g>
	<g>
		<path class="st0" d="M31.9,8.7h11.4c0,0.5,0.1,0.7,0.1,1c0,5.9-4.4,10.3-10.3,10.3c-5.7,0-10.2-4.4-10.2-10.1
			c0-5.6,4.5-9.9,10.3-9.9c4.4,0,8.5,2.9,9.6,6.8h-5.5c-0.9-1.6-2.4-2.5-4.2-2.5c-3,0-5.2,2.3-5.2,5.4c0,3.6,2.2,6,5.6,6
			c2.2,0,3.8-1.2,4.2-3.1h-5.7V8.7z"/>
		<path class="st0" d="M44,19.6V0.4h6.3c3.1,0,4.6,0.4,5.9,1.4c1.4,1.2,2.3,3,2.3,5.1c0,1.9-0.8,3.8-2,5c-1.3,1.2-2.9,1.7-5.6,1.7
			h-2.1v6H44z M48.7,9.2h2c2.1,0,3.1-0.7,3.1-2.2c0-1.6-1-2.3-3.3-2.3h-1.8V9.2z"/>
		<path class="st0" d="M72,6h-4.9c-0.2-1.3-0.7-1.8-1.8-1.8c-0.9,0-1.7,0.7-1.7,1.5c0,0.8,0.5,1.4,1.6,1.9l2.4,1.1
			c3.2,1.5,4.5,3,4.5,5.5c0,3.7-2.5,5.9-6.7,5.9c-4.3,0-7-2.3-7-6.1v-0.6h4.9c0,1.6,0.8,2.6,2,2.6c1.1,0,1.9-0.8,1.9-1.8
			c0-0.9-0.6-1.5-2-2.1c-1.2-0.5-1.9-0.8-2.2-0.9c-0.9-0.4-1.6-0.8-2.3-1.4c-1.2-1-1.9-2.5-1.9-4c0-3.2,3-5.7,6.7-5.7
			c2.1,0,4.1,0.8,5.2,2.2C71.6,3.3,71.9,4.1,72,6"/>
		<rect x="72.8" y="8.1" class="st0" width="7.3" height="3.7"/>
		<path class="st0" d="M81.5,19.6V0.4h5.9c3.2,0,4.5,0.3,5.5,1.1c1.1,0.9,1.8,2.4,1.8,4c0,1.7-0.8,3.1-2.2,3.9
			c2.1,0.7,3.2,2.2,3.2,4.5c0,1.6-0.6,3.1-1.8,4.2c-1.4,1.4-2.7,1.7-6.3,1.7H81.5z M86.2,7.7h1.7c1.4,0,2.1-0.5,2.1-1.5
			c0-1-0.6-1.5-2.1-1.5h-1.7V7.7z M86.2,15.3h2.3c1.6,0,2.5-0.6,2.5-1.8c0-1.2-0.8-1.7-2.5-1.7h-2.3V15.3z"/>
		<path class="st0" d="M96.1,0.4h4.9V12c0,2.5,0.7,3.6,2.5,3.6c1.8,0,2.5-1,2.5-3.6V0.4h4.9V12c0,2.9-0.5,4.4-1.9,5.9
			c-1.4,1.4-3.2,2.1-5.5,2.1c-2.2,0-4.2-0.7-5.5-2c-1.5-1.5-1.9-2.9-1.9-5.9V0.4z"/>
		<path class="st0" d="M111.8,19.6V0.4h6.5c2.9,0,4.4,0.3,6.1,1.4c0.9,0.5,1.7,1.3,2.3,2.2c1.2,1.6,1.8,3.6,1.8,5.9
			c0,5.8-3.6,9.7-9.1,9.7H111.8z M116.7,15.3h2.1c3.1,0,4.7-1.8,4.7-5.2c0-3.4-1.7-5.4-4.7-5.4h-2.1V15.3z"/>
		<path class="st0" d="M129.1,19.6V0.4h6.5c2.9,0,4.4,0.3,6.1,1.4c0.9,0.5,1.7,1.3,2.3,2.2c1.2,1.6,1.8,3.6,1.8,5.9
			c0,5.8-3.6,9.7-9.1,9.7H129.1z M134,15.3h2.1c3.1,0,4.7-1.8,4.7-5.2c0-3.4-1.7-5.4-4.7-5.4H134V15.3z"/>
		<polygon class="st0" points="149.4,19.6 149.4,12.6 143.6,0.4 149,0.4 151.8,8.1 154.7,0.4 160,0.4 154.3,12.6 154.3,19.6 		"/>
	</g>
	<g>
		<g>
			<path class="st1" d="M20,5.7l-0.3-0.6c-1.1-2.1-2.8-3.8-4.8-4.8L14.2,0H20V5.7z"/>
		</g>
	</g>
	<g>
		<g>
			<path class="st1" d="M5.7,20H0v-5.7l0.3,0.6c1.1,2.1,2.8,3.8,4.8,4.8L5.7,20z"/>
		</g>
	</g>
	<path class="st1" d="M10,2C5.5,2,1.9,5.6,1.9,10H0C0,4.5,4.5,0,10,0V2z"/>
	<path class="st1" d="M10,18.1c4.4,0,8.1-3.6,8.1-8.1H20c0,5.5-4.5,10-10,10V18.1z"/>
	<path class="st1" d="M10,5.2c-2.6,0-4.8,2.1-4.8,4.8H3.3c0-3.7,3-6.7,6.7-6.7V5.2z"/>
	<path class="st1" d="M10,14.8c2.6,0,4.8-2.1,4.8-4.8h1.9c0,3.7-3,6.7-6.7,6.7V14.8z"/>
	<path class="st1" d="M10,11.5c0.8,0,1.5-0.7,1.5-1.5h1.9c0,1.9-1.5,3.4-3.4,3.4V11.5z"/>
	<path class="st1" d="M10,8.5c-0.8,0-1.5,0.7-1.5,1.5H6.6c0-1.9,1.5-3.4,3.4-3.4V8.5z"/>
</g>
</svg>
